<?xml version="1.0" encoding="UTF-8" standalone="no"?>
<svg
   xmlns:dc="http://purl.org/dc/elements/1.1/"
   xmlns:cc="http://creativecommons.org/ns#"
   xmlns:rdf="http://www.w3.org/1999/02/22-rdf-syntax-ns#"
   xmlns:svg="http://www.w3.org/2000/svg"
   xmlns="http://www.w3.org/2000/svg"
   version="1.1"
   id="svg2"
   viewBox="0 0 87.883333 87.883332"
   height="24.802629mm"
   width="24.802629mm">
  <defs
     id="defs4" />
  <metadata
     id="metadata7">
    <rdf:RDF>
      <cc:Work
         rdf:about="">
        <dc:format>image/svg+xml</dc:format>
        <dc:type
           rdf:resource="http://purl.org/dc/dcmitype/StillImage" />
        <dc:title></dc:title>
      </cc:Work>
    </rdf:RDF>
  </metadata>
  <g
     transform="translate(-187.151,-105.18962)"
     id="layer1">
    <path
       id="path4172"
       d="m 231.1178,119.48454 c 0,0 -0.47458,11.29727 -9.39453,16.03711 -4.80273,0.20556 -8.64649,4.98779 -8.64649,10.87305 0,0.44525 0.0295,0.88124 0.0723,1.3125 -7.03611,1.02277 -12.3711,5.89283 -12.3711,11.75781 0,1.14818 0.2162,2.25555 0.59766,3.30664 -6.17827,2.18783 -10.36719,6.41067 -10.36719,11.26563 0,7.1008 8.95431,12.85742 20,12.85742 l 40,0 c 11.04569,0 20,-5.75662 20,-12.85742 0,-4.85496 -4.18892,-9.0778 -10.36719,-11.26563 0.38146,-1.05109 0.59766,-2.15846 0.59766,-3.30664 0,-5.86498 -5.33498,-10.73504 -12.37109,-11.75781 0.0427,-0.43124 0.0723,-0.86727 0.0723,-1.3125 0,-5.83518 -3.77997,-10.58617 -8.52539,-10.86719 0.40084,-2.03849 0.82181,-4.78279 0.52149,-6.5625 -0.72648,-4.30511 -9.81836,-9.48047 -9.81836,-9.48047 z"
       style="fill:#000000;fill-opacity:1;stroke:none" />
  </g>
</svg>
